<svg width="36" height="36" viewBox="0 0 36 36" fill="none" xmlns="http://www.w3.org/2000/svg">
<path d="M19.4316 1.19251C19.1279 1.46251 16.7654 6.15095 16.7654 6.15095L15.0076 13.2413L21.8476 12.6141C21.8476 12.6141 27.5373 2.03345 27.6526 1.78876C27.8579 1.34439 27.9676 1.16157 27.1829 1.16157C26.3982 1.15876 19.7157 0.939386 19.4316 1.19251Z" fill="#176CC7"/>
<path d="M22.9724 12.1753C22.6321 11.9925 12.6084 11.835 12.3721 12.1753C12.1584 12.4847 12.1893 13.8994 12.2934 14.0822C12.3974 14.265 15.7668 15.8316 15.7668 15.8316L15.764 16.4025C15.764 16.4025 15.9496 16.8497 17.8284 16.8497C19.7071 16.8497 19.9012 16.47 19.9012 16.47L19.9181 15.8934C19.9181 15.8934 22.8684 14.4197 23.0231 14.2903C23.1806 14.1581 23.3128 12.3581 22.9724 12.1753ZM19.8843 14.5181C19.8843 14.5181 19.8759 14.1244 19.6818 14.0259C19.4878 13.9275 16.3631 13.9444 16.0987 13.9584C15.8343 13.9725 15.8343 14.445 15.8343 14.445L13.6968 13.4044V13.1963L21.6562 13.2525L21.6703 13.4888L19.8843 14.5181Z" fill="#FCC417"/>
<path d="M16.667 14.3916C16.4026 14.3916 16.2507 14.6672 16.2507 15.1425C16.2507 15.5869 16.4026 15.9609 16.7373 15.9328C17.0129 15.9103 17.1085 15.4884 17.0832 15.1144C17.0579 14.67 17.0017 14.3916 16.667 14.3916Z" fill="#FDFFFF"/>
<path d="M8.15063 25.515C8.15063 32.2537 14.2425 35.2547 18.2925 35.1112C22.7588 34.9509 28.1081 31.4691 27.7847 25.0397C27.4781 18.9478 22.3538 16.0594 17.9156 16.0903C12.7575 16.1269 8.15063 19.6284 8.15063 25.515Z" fill="#FCC417"/>
<path d="M18.1492 33.9384C18.0789 33.9384 18.0057 33.9385 17.9354 33.9356C15.826 33.8653 13.742 32.9766 12.2176 31.5C10.5864 29.9194 9.69198 27.7819 9.70323 25.4841C9.72854 19.8731 14.6335 17.2716 17.9607 17.2716H17.9889C22.4973 17.2913 26.1985 20.7956 26.3026 25.546C26.3476 27.661 25.4814 29.88 23.7826 31.5506C22.1964 33.106 20.0926 33.9384 18.1492 33.9384ZM17.9551 18.2053C14.971 18.2053 10.5582 20.6466 10.547 25.4841C10.5385 29.101 13.3398 32.8191 18.0057 32.9766C19.7832 33.0328 21.6142 32.3522 23.0935 30.8981C24.6292 29.3878 25.4926 27.4416 25.4617 25.5572C25.3942 21.4706 22.0529 18.2194 17.9973 18.2025C17.986 18.2025 17.9635 18.2053 17.9551 18.2053Z" fill="#FA912C"/>
<path d="M16.2618 17.0466C16.0677 16.7794 13.8683 16.83 11.7899 18.8606C9.78458 20.8209 9.56802 22.6687 9.95333 22.7756C10.3893 22.8966 10.9208 20.9391 12.7574 19.2937C14.4449 17.7862 16.6499 17.5781 16.2618 17.0466ZM24.7696 24.3225C24.0918 24.4181 24.7949 26.4487 23.2227 28.7212C21.8586 30.6928 20.3118 31.4072 20.4918 31.8403C20.7336 32.4197 23.2115 30.9769 24.359 28.6256C25.3996 26.4965 25.2758 24.2494 24.7696 24.3225Z" fill="#FEFFFA"/>
<path d="M15.7078 21.6619C15.5616 21.8784 15.6937 23.7769 15.7809 23.8612C15.9497 24.03 17.2322 23.4253 17.2322 23.4253L17.1844 28.5019C17.1844 28.5019 16.2422 28.4906 16.1437 28.5272C15.9497 28.6003 15.975 30.5578 16.1184 30.6534C16.2619 30.7491 20.1066 30.7997 20.2528 30.6056C20.3991 30.4116 20.3625 28.6987 20.295 28.62C20.1741 28.4737 19.2544 28.5328 19.2544 28.5328C19.2544 28.5328 19.3331 21.0572 19.3078 20.8181C19.2825 20.5791 19.0181 20.43 18.7031 20.5031C18.3881 20.5762 15.8006 21.5212 15.7078 21.6619Z" fill="#FA912C"/>
<path d="M7.1748 1.04625C6.99761 1.20937 13.7729 13.275 13.7729 13.275C13.7729 13.275 14.9092 13.4212 17.4461 13.4437C19.9829 13.4662 21.2401 13.2975 21.2401 13.2975C21.2401 13.2975 15.9723 1.16718 15.6573 1.04625C15.5026 0.98437 13.4157 0.96187 11.3767 0.93937C9.3348 0.914057 7.34355 0.888745 7.1748 1.04625Z" fill="#2E9DF4"/>
</svg>
