<svg width="36" height="36" viewBox="0 0 36 36" fill="none" xmlns="http://www.w3.org/2000/svg">
<path d="M19.4314 1.19251C19.1276 1.46251 16.7651 6.15095 16.7651 6.15095L15.0073 13.2413L21.8473 12.6141C21.8473 12.6141 27.537 2.03345 27.6523 1.78876C27.8576 1.34439 27.9673 1.16157 27.1826 1.16157C26.3979 1.15876 19.7154 0.939386 19.4314 1.19251Z" fill="#176CC7"/>
<path d="M22.9727 12.1753C22.6324 11.9925 12.6086 11.835 12.3724 12.1753C12.1586 12.4847 12.2796 14.1075 12.3611 14.3016C12.5074 14.6391 15.7446 16.11 15.7446 16.11L15.6827 16.7794C15.6827 16.7794 15.9471 16.8469 17.8286 16.8469C19.7102 16.8469 20.0814 16.7513 20.0814 16.7513L20.0871 16.1466C20.0871 16.1466 23.0008 14.7291 23.1471 14.5322C23.2708 14.3691 23.313 12.3581 22.9727 12.1753ZM19.9886 14.7403C19.9886 14.7403 20.0814 14.3269 19.8874 14.2313C19.6933 14.1328 16.3633 14.1778 16.0989 14.1919C15.8346 14.2059 15.8346 14.6784 15.8346 14.6784L13.6971 13.4044V13.1963L21.6564 13.2525L21.6705 13.4888L19.9886 14.7403Z" fill="#CECDD2"/>
<path d="M16.6667 14.3916C16.4024 14.3916 16.2505 14.6672 16.2505 15.1425C16.2505 15.5869 16.4024 15.9609 16.7371 15.9328C17.0127 15.9103 17.1083 15.4884 17.083 15.1144C17.0577 14.67 17.0014 14.3916 16.6667 14.3916Z" fill="#FDFFFF"/>
<path d="M8.14795 25.8441C8.14795 32.5828 14.3495 35.4431 18.4023 35.3222C23.1245 35.1816 28.1083 31.5984 27.7848 25.1691C27.4783 19.0772 22.3117 16.3687 17.8736 16.3997C12.7154 16.4391 8.14795 19.9575 8.14795 25.8441Z" fill="#CECDD2"/>
<path d="M18.1492 34.0678C18.0789 34.0678 18.0057 34.0678 17.9354 34.065C15.826 33.9947 13.742 33.1059 12.2176 31.6294C10.5864 30.0488 9.69198 27.9113 9.70323 25.6134C9.72854 20.0025 14.6335 17.4009 17.9607 17.4009H17.9889C22.4973 17.4206 26.1985 20.925 26.3026 25.6753C26.3476 27.7903 25.4814 30.0094 23.7826 31.68C22.1964 33.2353 20.0926 34.0678 18.1492 34.0678ZM17.9551 18.3347C14.971 18.3347 10.5582 20.7759 10.547 25.6134C10.5385 29.2303 13.3398 32.9484 18.0057 33.1059C19.7832 33.1622 21.6142 32.4816 23.0935 31.0275C24.6292 29.5172 25.4926 27.5709 25.4617 25.6866C25.3885 21.6 22.0473 18.3488 17.9917 18.3291C17.986 18.3291 17.9635 18.3347 17.9551 18.3347Z" fill="#9B9B9D"/>
<path d="M16.3376 17.2884C16.1436 17.0212 14.1551 17.0972 12.0148 18.9394C9.88858 20.7703 9.57077 22.7953 9.95327 22.9022C10.3892 23.0231 10.9208 21.0656 12.7573 19.4203C14.4448 17.9156 16.723 17.82 16.3376 17.2884ZM24.7161 24.6712C24.0383 24.7669 24.7414 26.7975 23.1692 29.07C21.8051 31.0416 20.2583 31.7559 20.4383 32.1891C20.6801 32.7684 23.158 31.3256 24.3055 28.9744C25.3433 26.8481 25.2195 24.6009 24.7161 24.6712Z" fill="#FEFFFA"/>
<path d="M7.1748 1.04625C6.99761 1.20937 13.7729 13.275 13.7729 13.275C13.7729 13.275 14.9092 13.4212 17.4461 13.4437C19.9829 13.4662 21.2401 13.2975 21.2401 13.2975C21.2401 13.2975 15.9723 1.16718 15.6573 1.04625C15.5026 0.98437 13.4157 0.96187 11.3767 0.93937C9.3348 0.914057 7.34355 0.888745 7.1748 1.04625Z" fill="#2E9DF4"/>
<path d="M15.989 24.2859C16.2815 24.2887 16.5431 23.8922 16.785 23.6503C17.2997 23.1328 17.8397 22.7222 18.4556 23.2791C19.9687 24.6544 16.9312 26.0494 15.7781 27.9562C14.9175 29.3794 14.7431 30.4734 14.9822 30.7659C15.2212 31.0584 21.0403 31.0444 21.119 30.8981C21.1978 30.7519 21.2793 28.8028 21.1443 28.71C21.0093 28.6172 18.149 28.6706 18.149 28.6706C18.149 28.6706 18.3881 28.1137 19.3697 27.2644C20.4468 26.3334 21.3103 25.0537 21.0797 23.5406C20.6015 20.4131 17.4515 20.2978 16.0875 21.3862C14.7572 22.4466 15.044 24.2747 15.989 24.2859Z" fill="#9B9B9D"/>
</svg>
