<svg width="36" height="36" viewBox="0 0 36 36" fill="none" xmlns="http://www.w3.org/2000/svg">
<path d="M19.4314 1.19251C19.1276 1.46251 16.7651 6.15095 16.7651 6.15095L15.0073 13.2413L21.8473 12.6141C21.8473 12.6141 27.537 2.03345 27.6523 1.78876C27.8576 1.34439 27.9673 1.16157 27.1826 1.16157C26.3979 1.15876 19.7154 0.939386 19.4314 1.19251Z" fill="#176CC7"/>
<path d="M22.9727 12.1753C22.6324 11.9925 12.6086 11.835 12.3724 12.1753C12.1586 12.4847 12.2796 14.1075 12.3611 14.3016C12.5074 14.6391 15.7446 16.11 15.7446 16.11L15.6827 16.7794C15.6827 16.7794 15.9471 16.8469 17.8286 16.8469C19.7102 16.8469 20.0814 16.7513 20.0814 16.7513L20.0871 16.1466C20.0871 16.1466 23.0008 14.7291 23.1471 14.5322C23.2708 14.3691 23.313 12.3581 22.9727 12.1753ZM19.9886 14.7403C19.9886 14.7403 20.0814 14.3269 19.8874 14.2313C19.6933 14.1328 16.3633 14.1778 16.0989 14.1919C15.8346 14.2059 15.8346 14.6784 15.8346 14.6784L13.7364 13.5984L13.6971 13.1963L21.6564 13.2525L21.6283 13.6322L19.9886 14.7403Z" fill="#F79429"/>
<path d="M16.6667 14.5941C16.4024 14.5941 16.2505 14.8697 16.2505 15.345C16.2505 15.7894 16.4024 16.1634 16.7371 16.1353C17.0127 16.1128 17.1083 15.6909 17.083 15.3169C17.0577 14.8697 17.0014 14.5941 16.6667 14.5941Z" fill="#FDFFFF"/>
<path d="M8.24365 25.9003C8.24365 32.6391 14.3496 35.4431 18.4024 35.3222C23.1246 35.1816 28.204 31.5984 27.7849 25.1691C27.3912 19.1362 22.3118 16.3687 17.8737 16.3997C12.7155 16.4391 8.24365 20.0137 8.24365 25.9003Z" fill="#F79429"/>
<path d="M18.1882 34.3041C18.1179 34.3041 18.0448 34.3041 17.9745 34.3013C15.8651 34.2309 13.781 33.3422 12.2567 31.8656C10.6254 30.285 9.73104 28.1475 9.74229 25.8497C9.7676 20.2388 14.6726 17.6372 17.9998 17.6372H18.0279C22.5364 17.6569 26.2376 21.1613 26.3417 25.9116C26.3867 28.0266 25.7117 30.1303 24.0129 31.8009C22.4267 33.3534 20.1317 34.3041 18.1882 34.3041ZM17.9942 18.5709C15.0101 18.5709 10.5973 21.0122 10.586 25.8497C10.5776 29.4666 13.3789 33.1847 18.0448 33.3422C19.8223 33.3984 21.8276 32.7403 23.3042 31.2891C24.8398 29.7788 25.5289 27.81 25.4979 25.9256C25.4304 21.8391 22.0892 18.5878 18.0335 18.5709C18.0251 18.5653 18.0026 18.5709 17.9942 18.5709Z" fill="#D25116"/>
<path d="M16.3376 17.2884C16.1436 17.0213 14.1551 17.0972 12.0148 18.9394C9.88858 20.7703 9.57077 22.7953 9.95327 22.9022C10.3892 23.0231 10.9208 21.0656 12.7573 19.4203C14.4448 17.9156 16.723 17.82 16.3376 17.2884ZM24.8848 24.6488C24.207 24.7444 24.9101 26.775 23.338 29.0475C21.9739 31.0191 20.427 31.7334 20.607 32.1666C20.8489 32.7459 23.3267 31.3031 24.4742 28.9519C25.512 26.8228 25.3883 24.5756 24.8848 24.6488Z" fill="#FEFFFA"/>
<path d="M7.1748 1.04625C6.99761 1.20937 13.7729 13.275 13.7729 13.275C13.7729 13.275 14.9092 13.4212 17.4461 13.4437C19.9829 13.4662 21.2401 13.2975 21.2401 13.2975C21.2401 13.2975 15.9723 1.16718 15.6573 1.04625C15.5026 0.98437 13.4157 0.96187 11.3767 0.93937C9.3348 0.914057 7.34355 0.888745 7.1748 1.04625Z" fill="#2E9DF4"/>
<path d="M21.0799 23.5434C20.7537 20.7169 17.463 20.4806 16.099 21.5663C14.7715 22.6238 14.898 24.0975 15.829 24.2691C16.563 24.4041 16.7543 23.8219 16.968 23.5547C17.4518 22.9556 18.2224 22.8994 18.7259 23.3803C19.2968 23.9287 18.9452 25.2394 18.0874 25.2928C17.449 25.3322 17.1255 25.2984 17.044 25.4081C16.9287 25.5628 16.9455 26.7806 17.0637 26.9156C17.1987 27.0703 17.7387 26.9747 18.2027 26.9916C18.8412 27.0169 19.519 27.9619 19.0718 28.6706C18.6077 29.4047 17.373 29.0756 16.9287 28.6313C16.3409 28.0434 15.753 28.3809 15.5562 28.6116C15.2468 28.9772 14.9177 29.8097 16.0596 30.6197C17.1987 31.4297 20.6552 31.5844 21.3527 29.0756C21.9602 26.8847 20.5427 25.9847 20.5427 25.9847C20.5427 25.9847 21.2655 25.155 21.0799 23.5434Z" fill="#D25116"/>
</svg>
