<svg width="192" height="192" viewBox="0 0 192 192" fill="none" xmlns="http://www.w3.org/2000/svg">
<path d="M80 8H16C11.5817 8 8 11.5817 8 16V80C8 84.4183 11.5817 88 16 88H80C84.4183 88 88 84.4183 88 80V16C88 11.5817 84.4183 8 80 8Z" fill="#EF8354"/>
<path d="M80 104H16C11.5817 104 8 107.582 8 112V176C8 180.418 11.5817 184 16 184H80C84.4183 184 88 180.418 88 176V112C88 107.582 84.4183 104 80 104Z" fill="#EF8354"/>
<path d="M176 104H112C107.582 104 104 107.582 104 112V176C104 180.418 107.582 184 112 184H176C180.418 184 184 180.418 184 176V112C184 107.582 180.418 104 176 104Z" fill="#EF8354"/>
</svg>
